<?xml version="1.0" standalone="no"?><!DOCTYPE svg PUBLIC "-//W3C//DTD SVG 1.1//EN" "http://www.w3.org/Graphics/SVG/1.1/DTD/svg11.dtd"><svg t="1623381554481" class="icon" viewBox="0 0 1024 1024" version="1.1" xmlns="http://www.w3.org/2000/svg" p-id="2998" xmlns:xlink="http://www.w3.org/1999/xlink" width="200" height="200"><defs><style type="text/css"></style></defs><path d="M625.6 920.1h-230c-23.7 0-43-19.2-43-43l-41.3-287.9h398.6L669 876.8c-0.1 23.8-19.6 43.3-43.4 43.3z" fill="#FFA1A1" p-id="2999"></path><path d="M625.6 943h-230c-35.7 0-64.9-28.6-65.9-64.1l-44.9-312.6h451.5l-44.5 312.4c-0.9 35.6-30.3 64.3-66.2 64.3zM337.7 612.1l37.8 263.3v1.6c0 11.1 9 20.1 20.1 20.1h230.1c11.2 0 20.3-9.1 20.3-20.3v-1.6l37.4-263.1H337.7z" fill="" p-id="3000"></path><path d="M765.3 589.2H255.8c-29.2 0-53.1-23.9-53.1-53.1 0-29.2 23.9-53.1 53.1-53.1h509.5c29.2 0 53.1 23.9 53.1 53.1 0 29.2-23.9 53.1-53.1 53.1z" fill="#FFF5F5" p-id="3001"></path><path d="M765.3 612.1H255.8c-41.9 0-76-34.1-76-76s34.1-76 76-76h509.5c41.9 0 76 34.1 76 76s-34.1 76-76 76zM255.8 506c-16.6 0-30.1 13.5-30.1 30.1s13.5 30.1 30.1 30.1h509.5c16.6 0 30.1-13.5 30.1-30.1S781.9 506 765.3 506H255.8z" fill="" p-id="3002"></path><path d="M672.6 481.9H348.5c-26.5 0-48.2-21.7-48.2-48.2 0-26.5 21.7-48.2 48.2-48.2h324.1c26.5 0 48.2 21.7 48.2 48.2 0 26.5-21.7 48.2-48.2 48.2z" fill="#FFF5F5" p-id="3003"></path><path d="M672.6 504.8H348.5c-39.2 0-71.1-31.9-71.1-71.1 0-39.2 31.9-71.1 71.1-71.1h324.1c39.2 0 71.1 31.9 71.1 71.1 0 39.2-31.9 71.1-71.1 71.1z m-324.1-96.3c-13.9 0-25.2 11.3-25.2 25.2s11.3 25.2 25.2 25.2h324.1c13.9 0 25.2-11.3 25.2-25.2s-11.3-25.2-25.2-25.2H348.5z" fill="" p-id="3004"></path><path d="M595.4 380.8H425.7c-23.1 0-42.1-18.9-42.1-42.1 0-23.1 18.9-42.1 42.1-42.1h169.8c23.1 0 42.1 18.9 42.1 42.1-0.1 23.1-19 42.1-42.2 42.1z" fill="#FFF5F5" p-id="3005"></path><path d="M595.4 403.7H425.7c-35.8 0-65-29.2-65-65s29.2-65 65-65h169.8c35.8 0 65 29.2 65 65s-29.2 65-65.1 65z m-169.7-84.1c-10.6 0-19.1 8.6-19.1 19.1s8.6 19.1 19.1 19.1h169.8c10.6 0 19.1-8.6 19.1-19.1s-8.6-19.1-19.1-19.1H425.7z" fill="" p-id="3006"></path><path d="M510.5 211.1m-58 0a58 58 0 1 0 116 0 58 58 0 1 0-116 0Z" fill="#FFA1A1" p-id="3007"></path><path d="M510.5 292.1c-44.6 0-81-36.3-81-81s36.3-81 81-81c44.6 0 81 36.3 81 81s-36.3 81-81 81z m0-116.1c-19.4 0-35.1 15.8-35.1 35.1s15.8 35.1 35.1 35.1 35.1-15.8 35.1-35.1-15.7-35.1-35.1-35.1z" fill="" p-id="3008"></path><path d="M488.3 158.6c-1-3.9-8.7-38.7 13.3-64.8 15.3-18.1 39.5-26.2 71.9-23.9l-3.2 45.7c-16.5-1.2-28.5 1.6-33.6 7.7-7 8.4-3.9 24.1-3.8 24.3l-44.6 11z" fill="" p-id="3009"></path></svg>