<?xml version="1.0" standalone="no"?><!DOCTYPE svg PUBLIC "-//W3C//DTD SVG 1.1//EN" "http://www.w3.org/Graphics/SVG/1.1/DTD/svg11.dtd"><svg t="1623377282182" class="icon" viewBox="0 0 1024 1024" version="1.1" xmlns="http://www.w3.org/2000/svg" p-id="1208" xmlns:xlink="http://www.w3.org/1999/xlink" width="200" height="200"><defs><style type="text/css"></style></defs><path d="M854.6 243h-685c-15.2 0-27.5-12.3-27.5-27.5s12.3-27.5 27.5-27.5h685c15.2 0 27.5 12.3 27.5 27.5S869.8 243 854.6 243z" fill="#0C90F8" p-id="1209"></path><path d="M670.1 152v27h-316v-27h316m9.2-55.1H344.9c-25.3 0-45.9 20.5-45.9 45.9V234h426.1v-91.2c0-25.3-20.5-45.9-45.8-45.9z" fill="#0C90F8" p-id="1210"></path><path d="M750.2 252.4l0.2 620.8H273.8l-0.2-620.8h476.6m55-55.1H218.6l0.2 685c0 25.3 20.5 45.9 45.9 45.9h494.9c25.3 0 45.9-20.5 45.9-45.9l-0.3-685z" fill="#0C90F8" p-id="1211"></path><path d="M386.6 789.1c-15.2 0-27.5-12.3-27.5-27.5V348.7c0-15.2 12.3-27.5 27.5-27.5s27.5 12.3 27.5 27.5v412.8c0 15.3-12.3 27.6-27.5 27.6zM639.4 789.1c-15.2 0-27.5-12.3-27.5-27.5V348.7c0-15.2 12.3-27.5 27.5-27.5s27.5 12.3 27.5 27.5v412.8c0 15.3-12.3 27.6-27.5 27.6z" fill="#4C4F54" p-id="1212"></path></svg>